# https://github.com/mikedh/trimesh
v -10.51462224 17.01301617 20.00000000
v 10.51462224 17.01301617 20.00000000
v -10.51462224 -17.01301617 20.00000000
v 10.51462224 -17.01301617 20.00000000
v 0.00000000 -10.51462224 2.98698383
v 0.00000000 10.51462224 2.98698383
v 17.01301617 0.00000000 9.48537776
v 17.01301617 0.00000000 30.51462224
v -17.01301617 0.00000000 9.48537776
v -17.01301617 0.00000000 30.51462224
v 0.00000000 20.00000000 20.00000000
v 0.00000000 -20.00000000 20.00000000
v -6.18033989 -16.18033989 30.00000000
v 6.18033989 -16.18033989 30.00000000
v -6.18033989 16.18033989 30.00000000
v 6.18033989 16.18033989 30.00000000
v -6.18033989 -16.18033989 10.00000000
v 6.18033989 -16.18033989 10.00000000
v -6.18033989 16.18033989 10.00000000
v 6.18033989 16.18033989 10.00000000
v 0.00000000 0.00000000 0.00000000
v 16.18033989 10.00000000 13.81966011
v 16.18033989 -10.00000000 13.81966011
v 10.00000000 -6.18033989 3.81966011
v 10.00000000 6.18033989 3.81966011
v 16.18033989 10.00000000 26.18033989
v 16.18033989 -10.00000000 26.18033989
v 20.00000000 0.00000000 20.00000000
v -16.18033989 10.00000000 13.81966011
v -16.18033989 -10.00000000 13.81966011
v -10.00000000 -6.18033989 3.81966011
v -10.00000000 6.18033989 3.81966011
v -16.18033989 10.00000000 26.18033989
v -16.18033989 -10.00000000 26.18033989
v -20.00000000 0.00000000 20.00000000
v -5.46533058 19.23876716 20.00000000
v 5.46533058 19.23876716 20.00000000
v -5.46533058 -19.23876716 20.00000000
v 5.46533058 -19.23876716 20.00000000
v -8.67777129 -17.25336961 25.19783826
v -3.21244071 -13.87560955 34.04092890
v -3.24919696 -19.02113033 25.25731112
v 8.67777129 -17.25336961 25.19783826
v 3.21244071 -13.87560955 34.04092890
v 3.24919696 -19.02113033 25.25731112
v 0.00000000 -17.01301617 30.51462224
v -8.67777129 17.25336961 25.19783826
v -3.21244071 13.87560955 34.04092890
v -3.24919696 19.02113033 25.25731112
v 8.67777129 17.25336961 25.19783826
v 3.21244071 13.87560955 34.04092890
v 3.24919696 19.02113033 25.25731112
v 0.00000000 17.01301617 30.51462224
v -8.67777129 -17.25336961 14.80216174
v -3.21244071 -13.87560955 5.95907110
v -3.24919696 -19.02113033 14.74268888
v 8.67777129 -17.25336961 14.80216174
v 3.21244071 -13.87560955 5.95907110
v 3.24919696 -19.02113033 14.74268888
v 0.00000000 -17.01301617 9.48537776
v -8.67777129 17.25336961 14.80216174
v -3.21244071 13.87560955 5.95907110
v -3.24919696 19.02113033 14.74268888
v 8.67777129 17.25336961 14.80216174
v 3.21244071 13.87560955 5.95907110
v 3.24919696 19.02113033 14.74268888
v 0.00000000 17.01301617 9.48537776
v 0.00000000 -5.46533058 0.76123284
v 0.00000000 5.46533058 0.76123284
v 13.87560955 14.04092890 16.78755929
v 17.25336961 5.19783826 11.32222871
v 11.75570505 13.76381920 11.49349192
v 13.87560955 -14.04092890 16.78755929
v 17.25336961 -5.19783826 11.32222871
v 11.75570505 -13.76381920 11.49349192
v 5.19783826 -8.67777129 2.74663039
v 14.04092890 -3.21244071 6.12439045
v 8.50650808 -11.75570505 6.23618080
v 5.25731112 -3.24919696 0.97886967
v 13.76381920 -8.50650808 8.24429495
v 5.19783826 8.67777129 2.74663039
v 14.04092890 3.21244071 6.12439045
v 8.50650808 11.75570505 6.23618080
v 5.25731112 3.24919696 0.97886967
v 13.76381920 8.50650808 8.24429495
v 10.51462224 0.00000000 2.98698383
v 13.87560955 14.04092890 23.21244071
v 17.25336961 5.19783826 28.67777129
v 11.75570505 13.76381920 28.50650808
v 17.01301617 10.51462224 20.00000000
v 13.87560955 -14.04092890 23.21244071
v 17.25336961 -5.19783826 28.67777129
v 11.75570505 -13.76381920 28.50650808
v 17.01301617 -10.51462224 20.00000000
v 14.04092890 -3.21244071 33.87560955
v 8.50650808 -11.75570505 33.76381920
v 13.76381920 -8.50650808 31.75570505
v 14.04092890 3.21244071 33.87560955
v 8.50650808 11.75570505 33.76381920
v 13.76381920 8.50650808 31.75570505
v 19.23876716 0.00000000 14.53466942
v 19.23876716 0.00000000 25.46533058
v 19.02113033 5.25731112 16.75080304
v 19.02113033 -5.25731112 16.75080304
v 19.02113033 5.25731112 23.24919696
v 19.02113033 -5.25731112 23.24919696
v -13.87560955 14.04092890 16.78755929
v -17.25336961 5.19783826 11.32222871
v -11.75570505 13.76381920 11.49349192
v -13.87560955 -14.04092890 16.78755929
v -17.25336961 -5.19783826 11.32222871
v -11.75570505 -13.76381920 11.49349192
v -5.19783826 -8.67777129 2.74663039
v -14.04092890 -3.21244071 6.12439045
v -8.50650808 -11.75570505 6.23618080
v -5.25731112 -3.24919696 0.97886967
v -13.76381920 -8.50650808 8.24429495
v -5.19783826 8.67777129 2.74663039
v -14.04092890 3.21244071 6.12439045
v -8.50650808 11.75570505 6.23618080
v -5.25731112 3.24919696 0.97886967
v -13.76381920 8.50650808 8.24429495
v -10.51462224 0.00000000 2.98698383
v -13.87560955 14.04092890 23.21244071
v -17.25336961 5.19783826 28.67777129
v -11.75570505 13.76381920 28.50650808
v -17.01301617 10.51462224 20.00000000
v -13.87560955 -14.04092890 23.21244071
v -17.25336961 -5.19783826 28.67777129
v -11.75570505 -13.76381920 28.50650808
v -17.01301617 -10.51462224 20.00000000
v -14.04092890 -3.21244071 33.87560955
v -8.50650808 -11.75570505 33.76381920
v -13.76381920 -8.50650808 31.75570505
v -14.04092890 3.21244071 33.87560955
v -8.50650808 11.75570505 33.76381920
v -13.76381920 8.50650808 31.75570505
v -19.23876716 0.00000000 14.53466942
v -19.23876716 0.00000000 25.46533058
v -19.02113033 5.25731112 16.75080304
v -19.02113033 -5.25731112 16.75080304
v -19.02113033 5.25731112 23.24919696
v -19.02113033 -5.25731112 23.24919696
v -8.06710697 18.30086842 20.00000000
v -2.75904484 19.80877764 20.00000000
v 8.06710697 18.30086842 20.00000000
v 2.75904484 19.80877764 20.00000000
v -8.06710697 -18.30086842 20.00000000
v -2.75904484 -19.80877764 20.00000000
v 8.06710697 -18.30086842 20.00000000
v 2.75904484 -19.80877764 20.00000000
v -9.68883284 -17.29858672 22.62400758
v -7.50077135 -16.87822949 27.67227465
v -7.16457587 -18.48609201 22.63310743
v -4.74172651 -15.17304600 32.13650299
v -1.64484931 -19.75376681 22.66142208
v -4.77353861 -17.82013048 27.72374771
v -4.40234055 -19.32785195 22.65584954
v -6.02517758 -18.32488350 25.28165501
v 9.68883284 -17.29858672 22.62400758
v 7.50077135 -16.87822949 27.67227465
v 7.16457587 -18.48609201 22.63310743
v 4.74172651 -15.17304600 32.13650299
v 0.00000000 -14.05814061 34.22563470
v 1.64484931 -19.75376681 22.66142208
v 4.77353861 -17.82013048 27.72374771
v 4.40234055 -19.32785195 22.65584954
v 0.00000000 -19.27722527 25.32809402
v 6.02517758 -18.32488350 25.28165501
v -3.12868930 -16.80355771 30.38516979
v 3.12868930 -16.80355771 30.38516979
v -1.62283703 -15.60408741 32.40479165
v -1.64647160 -18.25964986 27.99214103
v 1.62283703 -15.60408741 32.40479165
v 1.64647160 -18.25964986 27.99214103
v -9.68883284 17.29858672 22.62400758
v -7.50077135 16.87822949 27.67227465
v -7.16457587 18.48609201 22.63310743
v -4.74172651 15.17304600 32.13650299
v -1.64484931 19.75376681 22.66142208
v -4.77353861 17.82013048 27.72374771
v -4.40234055 19.32785195 22.65584954
v -6.02517758 18.32488350 25.28165501
v 9.68883284 17.29858672 22.62400758
v 7.50077135 16.87822949 27.67227465
v 7.16457587 18.48609201 22.63310743
v 4.74172651 15.17304600 32.13650299
v 0.00000000 14.05814061 34.22563470
v 1.64484931 19.75376681 22.66142208
v 4.77353861 17.82013048 27.72374771
v 4.40234055 19.32785195 22.65584954
v 0.00000000 19.27722527 25.32809402
v 6.02517758 18.32488350 25.28165501
v -3.12868930 16.80355771 30.38516979
v 3.12868930 16.80355771 30.38516979
v -1.62283703 15.60408741 32.40479165
v -1.64647160 18.25964986 27.99214103
v 1.62283703 15.60408741 32.40479165
v 1.64647160 18.25964986 27.99214103
v -9.68883284 -17.29858672 17.37599242
v -7.50077135 -16.87822949 12.32772535
v -7.16457587 -18.48609201 17.36689257
v -1.62172587 -12.31284042 4.32313915
v -4.74172651 -15.17304600 7.86349701
v -1.64484931 -19.75376681 17.33857792
v -4.77353861 -17.82013048 12.27625229
v -4.40234055 -19.32785195 17.34415046
v -6.02517758 -18.32488350 14.71834499
v 9.68883284 -17.29858672 17.37599242
v 7.50077135 -16.87822949 12.32772535
v 7.16457587 -18.48609201 17.36689257
v 1.62172587 -12.31284042 4.32313915
v 4.74172651 -15.17304600 7.86349701
v 0.00000000 -14.05814061 5.77436530
v 1.64484931 -19.75376681 17.33857792
v 4.77353861 -17.82013048 12.27625229
v 4.40234055 -19.32785195 17.34415046
v 0.00000000 -19.27722527 14.67190598
v 6.02517758 -18.32488350 14.71834499
v -3.12868930 -16.80355771 9.61483021
v 3.12868930 -16.80355771 9.61483021
v -1.62283703 -15.60408741 7.59520835
v -1.64647160 -18.25964986 12.00785897
v 1.62283703 -15.60408741 7.59520835
v 1.64647160 -18.25964986 12.00785897
v -9.68883284 17.29858672 17.37599242
v -7.50077135 16.87822949 12.32772535
v -7.16457587 18.48609201 17.36689257
v -1.62172587 12.31284042 4.32313915
v -4.74172651 15.17304600 7.86349701
v -1.64484931 19.75376681 17.33857792
v -4.77353861 17.82013048 12.27625229
v -4.40234055 19.32785195 17.34415046
v -6.02517758 18.32488350 14.71834499
v 9.68883284 17.29858672 17.37599242
v 7.50077135 16.87822949 12.32772535
v 7.16457587 18.48609201 17.36689257
v 1.62172587 12.31284042 4.32313915
v 4.74172651 15.17304600 7.86349701
v 0.00000000 14.05814061 5.77436530
v 1.64484931 19.75376681 17.33857792
v 4.77353861 17.82013048 12.27625229
v 4.40234055 19.32785195 17.34415046
v 0.00000000 19.27722527 14.67190598
v 6.02517758 18.32488350 14.71834499
v -3.12868930 16.80355771 9.61483021
v 3.12868930 16.80355771 9.61483021
v -1.62283703 15.60408741 7.59520835
v -1.64647160 18.25964986 12.00785897
v 1.62283703 15.60408741 7.59520835
v 1.64647160 18.25964986 12.00785897
v 0.00000000 -8.06710697 1.69913158
v 0.00000000 -2.75904484 0.19122236
v 0.00000000 8.06710697 1.69913158
v 0.00000000 2.75904484 0.19122236
v 12.31284042 15.67686085 18.37827413
v 15.17304600 12.13650299 15.25827349
v 11.42503318 15.85298459 15.73954269
v 17.29858672 2.62400758 10.31116716
v 16.87822949 7.67227465 12.49922865
v 9.07980999 15.15870840 10.63140298
v 14.14213562 12.03001910 12.56503931
v 10.32243240 15.66903397 13.07693970
v 12.94823788 14.04619693 14.07990815
v 12.31284042 -15.67686085 18.37827413
v 15.17304600 -12.13650299 15.25827349
v 11.42503318 -15.85298459 15.73954269
v 17.29858672 -2.62400758 10.31116716
v 16.87822949 -7.67227465 12.49922865
v 9.07980999 -15.15870840 10.63140298
v 14.14213562 -12.03001910 12.56503931
v 10.32243240 -15.66903397 13.07693970
v 12.94823788 -14.04619693 14.07990815
v 2.62400758 -9.68883284 2.70141328
v 7.67227465 -7.50077135 3.12177051
v 4.26045731 -11.42503318 4.14701541
v 2.63310743 -7.16457587 1.51390799
v 15.67686085 -1.62172587 7.68715958
v 12.13650299 -4.74172651 4.82695400
v 15.85298459 -4.26045731 8.57496682
v 7.43496069 -14.14213562 7.96998090
v 9.36859702 -9.07980999 4.84129160
v 5.92009185 -12.94823788 5.95380307
v 10.26750882 -12.93155584 8.71491576
v 6.92306030 -10.32243240 4.33096603
v 2.66142208 -1.64484931 0.24623319
v 7.72374771 -4.77353861 2.17986952
v 2.65584954 -4.40234055 0.67214805
v 5.28165501 -6.02517758 1.67511650
v 15.15870840 -9.36859702 10.92019001
v 12.03001910 -7.43496069 5.85786438
v 15.66903397 -6.92306030 9.67756760
v 12.93155584 -11.28508424 9.73249118
v 14.04619693 -5.92009185 7.05176212
v 11.28508424 -10.26750882 7.06844416
v 2.62400758 9.68883284 2.70141328
v 7.67227465 7.50077135 3.12177051
v 4.26045731 11.42503318 4.14701541
v 2.63310743 7.16457587 1.51390799
v 15.67686085 1.62172587 7.68715958
v 12.13650299 4.74172651 4.82695400
v 15.85298459 4.26045731 8.57496682
v 14.22563470 0.00000000 5.94185939
v 7.43496069 14.14213562 7.96998090
v 9.36859702 9.07980999 4.84129160
v 5.92009185 12.94823788 5.95380307
v 10.26750882 12.93155584 8.71491576
v 6.92306030 10.32243240 4.33096603
v 2.66142208 1.64484931 0.24623319
v 7.72374771 4.77353861 2.17986952
v 2.65584954 4.40234055 0.67214805
v 5.32809402 0.00000000 0.72277473
v 5.28165501 6.02517758 1.67511650
v 15.15870840 9.36859702 10.92019001
v 12.03001910 7.43496069 5.85786438
v 15.66903397 6.92306030 9.67756760
v 12.93155584 11.28508424 9.73249118
v 14.04619693 5.92009185 7.05176212
v 11.28508424 10.26750882 7.06844416
v 10.38516979 -3.12868930 3.19644229
v 10.38516979 3.12868930 3.19644229
v 12.40479165 -1.62283703 4.39591259
v 7.99214103 -1.64647160 1.74035014
v 12.40479165 1.62283703 4.39591259
v 7.99214103 1.64647160 1.74035014
v 12.31284042 15.67686085 21.62172587
v 15.17304600 12.13650299 24.74172651
v 11.42503318 15.85298459 24.26045731
v 14.05814061 14.22563470 20.00000000
v 17.29858672 2.62400758 29.68883284
v 16.87822949 7.67227465 27.50077135
v 9.07980999 15.15870840 29.36859702
v 14.14213562 12.03001910 27.43496069
v 10.32243240 15.66903397 26.92306030
v 12.94823788 14.04619693 25.92009185
v 16.80355771 10.38516979 16.87131070
v 16.80355771 10.38516979 23.12868930
v 15.60408741 12.40479165 18.37716297
v 15.60408741 12.40479165 21.62283703
v 12.31284042 -15.67686085 21.62172587
v 15.17304600 -12.13650299 24.74172651
v 11.42503318 -15.85298459 24.26045731
v 14.05814061 -14.22563470 20.00000000
v 17.29858672 -2.62400758 29.68883284
v 16.87822949 -7.67227465 27.50077135
v 9.07980999 -15.15870840 29.36859702
v 14.14213562 -12.03001910 27.43496069
v 10.32243240 -15.66903397 26.92306030
v 12.94823788 -14.04619693 25.92009185
v 16.80355771 -10.38516979 16.87131070
v 16.80355771 -10.38516979 23.12868930
v 15.60408741 -12.40479165 18.37716297
v 15.60408741 -12.40479165 21.62283703
v 15.67686085 -1.62172587 32.31284042
v 12.13650299 -4.74172651 35.17304600
v 15.85298459 -4.26045731 31.42503318
v 7.43496069 -14.14213562 32.03001910
v 9.36859702 -9.07980999 35.15870840
v 5.92009185 -12.94823788 34.04619693
v 10.26750882 -12.93155584 31.28508424
v 15.15870840 -9.36859702 29.07980999
v 12.03001910 -7.43496069 34.14213562
v 15.66903397 -6.92306030 30.32243240
v 12.93155584 -11.28508424 30.26750882
v 14.04619693 -5.92009185 32.94823788
v 11.28508424 -10.26750882 32.93155584
v 15.67686085 1.62172587 32.31284042
v 12.13650299 4.74172651 35.17304600
v 15.85298459 4.26045731 31.42503318
v 14.22563470 0.00000000 34.05814061
v 7.43496069 14.14213562 32.03001910
v 9.36859702 9.07980999 35.15870840
v 5.92009185 12.94823788 34.04619693
v 10.26750882 12.93155584 31.28508424
v 15.15870840 9.36859702 29.07980999
v 12.03001910 7.43496069 34.14213562
v 15.66903397 6.92306030 30.32243240
v 12.93155584 11.28508424 30.26750882
v 14.04619693 5.92009185 32.94823788
v 11.28508424 10.26750882 32.93155584
v 18.30086842 0.00000000 11.93289303
v 19.80877764 0.00000000 17.24095516
v 18.48609201 2.63310743 12.83542413
v 18.48609201 -2.63310743 12.83542413
v 18.30086842 0.00000000 28.06710697
v 19.80877764 0.00000000 22.75904484
v 18.48609201 2.63310743 27.16457587
v 18.48609201 -2.63310743 27.16457587
v 17.82013048 7.72374771 15.22646139
v 19.75376681 2.66142208 18.35515069
v 18.32488350 5.28165501 13.97482242
v 18.25964986 7.99214103 18.35352840
v 19.32785195 2.65584954 15.59765945
v 17.82013048 -7.72374771 15.22646139
v 19.75376681 -2.66142208 18.35515069
v 18.32488350 -5.28165501 13.97482242
v 18.25964986 -7.99214103 18.35352840
v 19.32785195 -2.65584954 15.59765945
v 17.82013048 7.72374771 24.77353861
v 19.75376681 2.66142208 21.64484931
v 18.32488350 5.28165501 26.02517758
v 18.25964986 7.99214103 21.64647160
v 19.32785195 2.65584954 24.40234055
v 19.27722527 5.32809402 20.00000000
v 17.82013048 -7.72374771 24.77353861
v 19.75376681 -2.66142208 21.64484931
v 18.32488350 -5.28165501 26.02517758
v 18.25964986 -7.99214103 21.64647160
v 19.32785195 -2.65584954 24.40234055
v 19.27722527 -5.32809402 20.00000000
v -12.31284042 15.67686085 18.37827413
v -15.17304600 12.13650299 15.25827349
v -11.42503318 15.85298459 15.73954269
v -17.29858672 2.62400758 10.31116716
v -16.87822949 7.67227465 12.49922865
v -9.07980999 15.15870840 10.63140298
v -14.14213562 12.03001910 12.56503931
v -10.32243240 15.66903397 13.07693970
v -12.94823788 14.04619693 14.07990815
v -12.31284042 -15.67686085 18.37827413
v -15.17304600 -12.13650299 15.25827349
v -11.42503318 -15.85298459 15.73954269
v -17.29858672 -2.62400758 10.31116716
v -16.87822949 -7.67227465 12.49922865
v -9.07980999 -15.15870840 10.63140298
v -14.14213562 -12.03001910 12.56503931
v -10.32243240 -15.66903397 13.07693970
v -12.94823788 -14.04619693 14.07990815
v -2.62400758 -9.68883284 2.70141328
v -7.67227465 -7.50077135 3.12177051
v -4.26045731 -11.42503318 4.14701541
v -2.63310743 -7.16457587 1.51390799
v -15.67686085 -1.62172587 7.68715958
v -12.13650299 -4.74172651 4.82695400
v -15.85298459 -4.26045731 8.57496682
v -7.43496069 -14.14213562 7.96998090
v -9.36859702 -9.07980999 4.84129160
v -5.92009185 -12.94823788 5.95380307
v -10.26750882 -12.93155584 8.71491576
v -6.92306030 -10.32243240 4.33096603
v -2.66142208 -1.64484931 0.24623319
v -7.72374771 -4.77353861 2.17986952
v -2.65584954 -4.40234055 0.67214805
v -5.28165501 -6.02517758 1.67511650
v -15.15870840 -9.36859702 10.92019001
v -12.03001910 -7.43496069 5.85786438
v -15.66903397 -6.92306030 9.67756760
v -12.93155584 -11.28508424 9.73249118
v -14.04619693 -5.92009185 7.05176212
v -11.28508424 -10.26750882 7.06844416
v -2.62400758 9.68883284 2.70141328
v -7.67227465 7.50077135 3.12177051
v -4.26045731 11.42503318 4.14701541
v -2.63310743 7.16457587 1.51390799
v -15.67686085 1.62172587 7.68715958
v -12.13650299 4.74172651 4.82695400
v -15.85298459 4.26045731 8.57496682
v -14.22563470 0.00000000 5.94185939
v -7.43496069 14.14213562 7.96998090
v -9.36859702 9.07980999 4.84129160
v -5.92009185 12.94823788 5.95380307
v -10.26750882 12.93155584 8.71491576
v -6.92306030 10.32243240 4.33096603
v -2.66142208 1.64484931 0.24623319
v -7.72374771 4.77353861 2.17986952
v -2.65584954 4.40234055 0.67214805
v -5.32809402 0.00000000 0.72277473
v -5.28165501 6.02517758 1.67511650
v -15.15870840 9.36859702 10.92019001
v -12.03001910 7.43496069 5.85786438
v -15.66903397 6.92306030 9.67756760
v -12.93155584 11.28508424 9.73249118
v -14.04619693 5.92009185 7.05176212
v -11.28508424 10.26750882 7.06844416
v -10.38516979 -3.12868930 3.19644229
v -10.38516979 3.12868930 3.19644229
v -12.40479165 -1.62283703 4.39591259
v -7.99214103 -1.64647160 1.74035014
v -12.40479165 1.62283703 4.39591259
v -7.99214103 1.64647160 1.74035014
v -12.31284042 15.67686085 21.62172587
v -15.17304600 12.13650299 24.74172651
v -11.42503318 15.85298459 24.26045731
v -14.05814061 14.22563470 20.00000000
v -17.29858672 2.62400758 29.68883284
v -16.87822949 7.67227465 27.50077135
v -9.07980999 15.15870840 29.36859702
v -14.14213562 12.03001910 27.43496069
v -10.32243240 15.66903397 26.92306030
v -12.94823788 14.04619693 25.92009185
v -16.80355771 10.38516979 16.87131070
v -16.80355771 10.38516979 23.12868930
v -15.60408741 12.40479165 18.37716297
v -15.60408741 12.40479165 21.62283703
v -12.31284042 -15.67686085 21.62172587
v -15.17304600 -12.13650299 24.74172651
v -11.42503318 -15.85298459 24.26045731
v -14.05814061 -14.22563470 20.00000000
v -17.29858672 -2.62400758 29.68883284
v -16.87822949 -7.67227465 27.50077135
v -9.07980999 -15.15870840 29.36859702
v -14.14213562 -12.03001910 27.43496069
v -10.32243240 -15.66903397 26.92306030
v -12.94823788 -14.04619693 25.92009185
v -16.80355771 -10.38516979 16.87131070
v -16.80355771 -10.38516979 23.12868930
v -15.60408741 -12.40479165 18.37716297
v -15.60408741 -12.40479165 21.62283703
v -15.67686085 -1.62172587 32.31284042
v -12.13650299 -4.74172651 35.17304600
v -15.85298459 -4.26045731 31.42503318
v -7.43496069 -14.14213562 32.03001910
v -9.36859702 -9.07980999 35.15870840
v -5.92009185 -12.94823788 34.04619693
v -10.26750882 -12.93155584 31.28508424
v -15.15870840 -9.36859702 29.07980999
v -12.03001910 -7.43496069 34.14213562
v -15.66903397 -6.92306030 30.32243240
v -12.93155584 -11.28508424 30.26750882
v -14.04619693 -5.92009185 32.94823788
v -11.28508424 -10.26750882 32.93155584
v -15.67686085 1.62172587 32.31284042
v -12.13650299 4.74172651 35.17304600
v -15.85298459 4.26045731 31.42503318
v -14.22563470 0.00000000 34.05814061
v -7.43496069 14.14213562 32.03001910
v -9.36859702 9.07980999 35.15870840
v -5.92009185 12.94823788 34.04619693
v -10.26750882 12.93155584 31.28508424
v -15.15870840 9.36859702 29.07980999
v -12.03001910 7.43496069 34.14213562
v -15.66903397 6.92306030 30.32243240
v -12.93155584 11.28508424 30.26750882
v -14.04619693 5.92009185 32.94823788
v -11.28508424 10.26750882 32.93155584
v -18.30086842 0.00000000 11.93289303
v -19.80877764 0.00000000 17.24095516
v -18.48609201 2.63310743 12.83542413
v -18.48609201 -2.63310743 12.83542413
v -18.30086842 0.00000000 28.06710697
v -19.80877764 0.00000000 22.75904484
v -18.48609201 2.63310743 27.16457587
v -18.48609201 -2.63310743 27.16457587
v -17.82013048 7.72374771 15.22646139
v -19.75376681 2.66142208 18.35515069
v -18.32488350 5.28165501 13.97482242
v -18.25964986 7.99214103 18.35352840
v -19.32785195 2.65584954 15.59765945
v -17.82013048 -7.72374771 15.22646139
v -19.75376681 -2.66142208 18.35515069
v -18.32488350 -5.28165501 13.97482242
v -18.25964986 -7.99214103 18.35352840
v -19.32785195 -2.65584954 15.59765945
v -17.82013048 7.72374771 24.77353861
v -19.75376681 2.66142208 21.64484931
v -18.32488350 5.28165501 26.02517758
v -18.25964986 7.99214103 21.64647160
v -19.32785195 2.65584954 24.40234055
v -19.27722527 5.32809402 20.00000000
v -17.82013048 -7.72374771 24.77353861
v -19.75376681 -2.66142208 21.64484931
v -18.32488350 -5.28165501 26.02517758
v -18.25964986 -7.99214103 21.64647160
v -19.32785195 -2.65584954 24.40234055
v -19.27722527 -5.32809402 20.00000000
v 22.00000000 -4.00000000 16.00000000
v 22.00000000 -4.00000000 24.00000000
v 22.00000000 4.00000000 16.00000000
v 22.00000000 4.00000000 24.00000000
v 30.00000000 -4.00000000 16.00000000
v 30.00000000 -4.00000000 24.00000000
v 30.00000000 4.00000000 16.00000000
v 30.00000000 4.00000000 24.00000000
f 1 481 176
f 481 124 483
f 176 483 47
f 481 483 176
f 124 482 490
f 482 33 488
f 490 488 126
f 482 488 490
f 47 489 177
f 489 126 487
f 177 487 15
f 489 487 177
f 124 490 483
f 490 126 489
f 483 489 47
f 490 489 483
f 33 486 530
f 486 125 532
f 530 532 137
f 486 532 530
f 125 485 524
f 485 10 522
f 524 522 135
f 485 522 524
f 137 534 531
f 534 135 523
f 125 524 532
f 524 135 534
f 532 534 137
f 524 534 532
f 15 526 179
f 526 136 528
f 179 528 48
f 526 528 179
f 33 530 488
f 530 137 533
f 488 533 126
f 530 533 488
f 137 531 535
f 535 527 136
f 126 529 487
f 529 136 526
f 487 526 15
f 529 526 487
f 137 535 533
f 535 136 529
f 533 529 126
f 535 529 533
f 1 176 144
f 176 47 178
f 144 178 36
f 176 178 144
f 47 177 183
f 177 15 181
f 183 181 49
f 177 181 183
f 36 182 145
f 182 49 180
f 145 180 11
f 182 180 145
f 47 183 178
f 183 49 182
f 178 182 36
f 183 182 178
f 15 179 194
f 179 48 196
f 194 196 53
f 179 196 194
f 53 198 195
f 198 51 187
f 195 187 16
f 198 187 195
f 48 188 196
f 188 51 198
f 196 198 53
f 188 198 196
f 11 189 147
f 189 52 191
f 147 191 37
f 189 191 147
f 52 190 193
f 190 16 185
f 193 185 50
f 190 185 193
f 37 186 146
f 186 50 184
f 146 184 2
f 186 184 146
f 52 193 191
f 193 50 186
f 191 186 37
f 193 186 191
f 15 194 181
f 194 53 197
f 181 197 49
f 194 197 181
f 53 195 199
f 195 16 190
f 199 190 52
f 195 190 199
f 49 192 180
f 192 52 189
f 180 189 11
f 192 189 180
f 53 199 197
f 199 52 192
f 197 192 49
f 199 192 197
f 1 144 226
f 144 36 228
f 226 228 61
f 144 228 226
f 36 145 233
f 145 11 231
f 233 231 63
f 145 231 233
f 61 234 227
f 234 63 232
f 227 232 19
f 234 232 227
f 36 233 228
f 233 63 234
f 228 234 61
f 233 234 228
f 11 147 241
f 147 37 243
f 241 243 66
f 147 243 241
f 37 146 237
f 146 2 235
f 237 235 64
f 146 235 237
f 66 245 242
f 245 64 236
f 242 236 20
f 245 236 242
f 37 237 243
f 237 64 245
f 243 245 66
f 237 245 243
f 19 246 230
f 246 67 248
f 230 248 62
f 246 248 230
f 67 247 250
f 247 20 239
f 250 239 65
f 247 239 250
f 62 240 229
f 240 65 238
f 229 238 6
f 240 238 229
f 67 250 248
f 250 65 240
f 248 240 62
f 250 240 248
f 11 241 231
f 241 66 244
f 231 244 63
f 241 244 231
f 66 242 251
f 242 20 247
f 251 247 67
f 242 247 251
f 63 249 232
f 249 67 246
f 232 246 19
f 249 246 232
f 66 251 244
f 251 67 249
f 244 249 63
f 251 249 244
f 1 226 411
f 226 61 413
f 411 413 107
f 226 413 411
f 61 227 418
f 227 19 416
f 418 416 109
f 227 416 418
f 107 419 412
f 419 109 417
f 412 417 29
f 419 417 412
f 61 418 413
f 418 109 419
f 413 419 107
f 418 419 413
f 19 230 459
f 230 62 461
f 459 461 120
f 230 461 459
f 62 229 453
f 229 6 451
f 453 451 118
f 229 451 453
f 120 463 460
f 463 118 452
f 460 452 32
f 463 452 460
f 62 453 461
f 453 118 463
f 461 463 120
f 453 463 461
f 29 469 415
f 469 122 471
f 415 471 108
f 469 471 415
f 122 470 473
f 470 32 456
f 473 456 119
f 470 456 473
f 108 457 414
f 457 119 455
f 414 455 9
f 457 455 414
f 122 473 471
f 473 119 457
f 471 457 108
f 473 457 471
f 19 459 416
f 459 120 462
f 416 462 109
f 459 462 416
f 120 460 474
f 460 32 470
f 474 470 122
f 460 470 474
f 109 472 417
f 472 122 469
f 417 469 29
f 472 469 417
f 120 474 462
f 474 122 472
f 462 472 109
f 474 472 462
f 1 411 481
f 411 107 484
f 481 484 124
f 411 484 481
f 107 412 493
f 412 29 491
f 493 491 127
f 412 491 493
f 124 494 482
f 494 127 492
f 482 492 33
f 494 492 482
f 107 493 484
f 493 127 494
f 484 494 124
f 493 494 484
f 29 415 544
f 415 108 546
f 544 546 140
f 415 546 544
f 108 414 538
f 414 9 536
f 538 536 138
f 414 536 538
f 140 548 545
f 548 138 537
f 35 537 545
f 545 537 548
f 108 538 546
f 538 138 548
f 546 548 140
f 538 548 546
f 33 554 486
f 554 142 556
f 486 556 125
f 554 556 486
f 142 555 558
f 541 35 555
f 558 541 139
f 558 541 555
f 125 542 485
f 542 139 540
f 485 540 10
f 542 540 485
f 142 558 556
f 558 139 542
f 556 542 125
f 558 542 556
f 29 544 491
f 544 140 547
f 491 547 127
f 544 547 491
f 140 545 559
f 555 35 545
f 559 555 142
f 545 555 559
f 127 557 492
f 557 142 554
f 492 554 33
f 557 554 492
f 140 559 547
f 559 142 557
f 547 557 127
f 559 557 547
f 2 184 326
f 184 50 328
f 326 328 87
f 184 328 326
f 50 185 334
f 185 16 332
f 334 332 89
f 185 332 334
f 87 335 327
f 335 89 333
f 327 333 26
f 335 333 327
f 50 334 328
f 334 89 335
f 328 335 87
f 334 335 328
f 16 187 371
f 187 51 373
f 371 373 99
f 187 373 371
f 26 375 331
f 375 100 377
f 331 377 88
f 375 377 331
f 100 376 379
f 379 368 98
f 88 369 330
f 369 98 367
f 330 367 8
f 369 367 330
f 100 379 377
f 379 98 369
f 377 369 88
f 379 369 377
f 16 371 332
f 371 99 374
f 332 374 89
f 371 374 332
f 99 372 380
f 380 376 100
f 89 378 333
f 378 100 375
f 333 375 26
f 378 375 333
f 99 380 374
f 380 100 378
f 374 378 89
f 380 378 374
f 135 522 525
f 522 10 509
f 525 509 132
f 522 509 525
f 10 540 499
f 540 139 543
f 499 543 129
f 540 543 499
f 139 541 564
f 561 35 541
f 564 561 143
f 564 561 541
f 129 562 500
f 562 143 560
f 500 560 34
f 562 560 500
f 139 564 543
f 564 143 562
f 543 562 129
f 564 562 543
f 550 537 35
f 537 138 553
f 550 553 141
f 550 553 537
f 138 536 539
f 536 9 423
f 539 423 111
f 536 423 539
f 141 551 549
f 551 111 424
f 549 424 30
f 551 424 549
f 138 539 553
f 539 111 551
f 553 551 141
f 539 551 553
f 34 506 496
f 506 131 508
f 496 508 128
f 506 508 496
f 131 505 507
f 505 30 421
f 507 421 110
f 505 421 507
f 128 498 495
f 498 110 420
f 495 420 3
f 498 420 495
f 131 507 508
f 507 110 498
f 508 498 128
f 507 498 508
f 561 550 35
f 550 141 565
f 561 565 143
f 550 565 561
f 141 549 552
f 549 30 505
f 552 505 131
f 549 505 552
f 143 563 560
f 563 131 506
f 560 506 34
f 563 506 560
f 141 552 565
f 552 131 563
f 565 563 143
f 552 563 565
f 9 455 433
f 455 119 458
f 433 458 114
f 455 458 433
f 119 456 479
f 456 32 476
f 479 476 123
f 456 476 479
f 114 477 434
f 477 123 475
f 434 475 31
f 477 475 434
f 119 479 458
f 479 123 477
f 458 477 114
f 479 477 458
f 32 452 465
f 452 118 468
f 465 468 121
f 452 468 465
f 118 451 454
f 451 6 254
f 454 254 69
f 451 254 454
f 121 466 464
f 466 69 255
f 464 255 21
f 466 255 464
f 118 454 468
f 454 69 466
f 468 466 121
f 454 466 468
f 31 442 430
f 442 116 444
f 430 444 113
f 442 444 430
f 116 441 443
f 441 21 253
f 443 253 68
f 441 253 443
f 113 432 429
f 432 68 252
f 429 252 5
f 432 252 429
f 116 443 444
f 443 68 432
f 444 432 113
f 443 432 444
f 32 465 476
f 465 121 480
f 476 480 123
f 465 480 476
f 121 464 467
f 464 21 441
f 467 441 116
f 464 441 467
f 123 478 475
f 478 116 442
f 475 442 31
f 478 442 475
f 121 467 480
f 467 116 478
f 480 478 123
f 467 478 480
f 6 238 296
f 238 65 298
f 296 298 81
f 238 298 296
f 65 239 306
f 239 20 304
f 306 304 83
f 239 304 306
f 81 308 297
f 308 83 305
f 297 305 25
f 308 305 297
f 65 306 298
f 306 83 308
f 298 308 81
f 306 308 298
f 20 236 261
f 236 64 263
f 261 263 72
f 236 263 261
f 64 235 258
f 235 2 256
f 258 256 70
f 235 256 258
f 72 264 262
f 264 70 257
f 262 257 22
f 264 257 262
f 64 258 263
f 258 70 264
f 263 264 72
f 258 264 263
f 25 315 301
f 315 85 318
f 301 318 82
f 315 318 301
f 85 314 316
f 314 22 260
f 316 260 71
f 314 260 316
f 82 302 300
f 302 71 259
f 300 259 7
f 302 259 300
f 85 316 318
f 316 71 302
f 318 302 82
f 316 302 318
f 20 261 304
f 261 72 307
f 304 307 83
f 261 307 304
f 72 262 317
f 262 22 314
f 317 314 85
f 262 314 317
f 83 319 305
f 319 85 315
f 305 315 25
f 319 315 305
f 72 317 307
f 317 85 319
f 307 319 83
f 317 319 307
f 4 340 160
f 340 91 342
f 160 342 43
f 340 342 160
f 91 341 349
f 341 27 347
f 349 347 93
f 341 347 349
f 43 348 161
f 348 93 346
f 161 346 14
f 348 346 161
f 91 349 342
f 349 93 348
f 342 348 43
f 349 348 342
f 27 345 361
f 345 92 363
f 361 363 97
f 345 363 361
f 92 344 356
f 344 8 354
f 356 354 95
f 344 354 356
f 97 365 362
f 365 95 355
f 92 356 363
f 356 95 365
f 363 365 97
f 356 365 363
f 14 357 163
f 357 96 359
f 163 359 44
f 357 359 163
f 27 361 347
f 361 97 364
f 347 364 93
f 361 364 347
f 97 362 366
f 366 358 96
f 93 360 346
f 360 96 357
f 346 357 14
f 360 357 346
f 97 366 364
f 366 96 360
f 364 360 93
f 366 360 364
f 4 160 150
f 160 43 162
f 150 162 39
f 160 162 150
f 43 161 169
f 161 14 166
f 169 166 45
f 161 166 169
f 39 167 151
f 167 45 165
f 151 165 12
f 167 165 151
f 43 169 162
f 169 45 167
f 162 167 39
f 169 167 162
f 14 163 171
f 163 44 174
f 171 174 46
f 163 174 171
f 46 172 170
f 172 41 155
f 170 155 13
f 172 155 170
f 44 164 174
f 164 41 172
f 174 172 46
f 164 172 174
f 12 156 149
f 156 42 158
f 149 158 38
f 156 158 149
f 42 157 159
f 157 13 153
f 159 153 40
f 157 153 159
f 38 154 148
f 154 40 152
f 148 152 3
f 154 152 148
f 42 159 158
f 159 40 154
f 158 154 38
f 159 154 158
f 14 171 166
f 171 46 175
f 166 175 45
f 171 175 166
f 46 170 173
f 170 13 157
f 173 157 42
f 170 157 173
f 45 168 165
f 168 42 156
f 165 156 12
f 168 156 165
f 46 173 175
f 173 42 168
f 175 168 45
f 173 168 175
f 4 150 209
f 150 39 211
f 209 211 57
f 150 211 209
f 39 151 217
f 151 12 215
f 217 215 59
f 151 215 217
f 57 219 210
f 219 59 216
f 210 216 18
f 219 216 210
f 39 217 211
f 217 59 219
f 211 219 57
f 217 219 211
f 12 149 205
f 149 38 207
f 205 207 56
f 149 207 205
f 38 148 202
f 148 3 200
f 202 200 54
f 148 200 202
f 56 208 206
f 208 54 201
f 206 201 17
f 208 201 206
f 38 202 207
f 202 54 208
f 207 208 56
f 202 208 207
f 18 221 213
f 221 60 224
f 213 224 58
f 221 224 213
f 60 220 222
f 220 17 204
f 222 204 55
f 220 204 222
f 58 214 212
f 214 55 203
f 212 203 5
f 214 203 212
f 60 222 224
f 222 55 214
f 224 214 58
f 222 214 224
f 12 205 215
f 205 56 218
f 215 218 59
f 205 218 215
f 56 206 223
f 206 17 220
f 223 220 60
f 206 220 223
f 59 225 216
f 225 60 221
f 216 221 18
f 225 221 216
f 56 223 218
f 223 60 225
f 218 225 59
f 223 225 218
f 4 209 265
f 209 57 267
f 265 267 73
f 209 267 265
f 57 210 272
f 210 18 270
f 272 270 75
f 210 270 272
f 73 273 266
f 273 75 271
f 266 271 23
f 273 271 266
f 57 272 267
f 272 75 273
f 267 273 73
f 272 273 267
f 18 213 281
f 213 58 283
f 281 283 78
f 213 283 281
f 58 212 276
f 212 5 274
f 276 274 76
f 212 274 276
f 78 285 282
f 285 76 275
f 282 275 24
f 285 275 282
f 58 276 283
f 276 76 285
f 283 285 78
f 276 285 283
f 23 290 269
f 290 80 292
f 269 292 74
f 290 292 269
f 80 291 294
f 291 24 279
f 294 279 77
f 291 279 294
f 74 280 268
f 280 77 278
f 268 278 7
f 280 278 268
f 80 294 292
f 294 77 280
f 292 280 74
f 294 280 292
f 18 281 270
f 281 78 284
f 270 284 75
f 281 284 270
f 78 282 295
f 282 24 291
f 295 291 80
f 282 291 295
f 75 293 271
f 293 80 290
f 271 290 23
f 293 290 271
f 78 295 284
f 295 80 293
f 284 293 75
f 295 293 284
f 4 265 340
f 265 73 343
f 340 343 91
f 265 343 340
f 73 266 352
f 266 23 350
f 352 350 94
f 266 350 352
f 91 353 341
f 353 94 351
f 341 351 27
f 353 351 341
f 73 352 343
f 352 94 353
f 343 353 91
f 352 353 343
f 23 269 394
f 269 74 396
f 394 396 104
f 269 396 394
f 74 268 384
f 268 7 381
f 384 381 101
f 268 381 384
f 104 398 395
f 398 101 382
f 395 382 28
f 398 382 395
f 74 384 396
f 384 101 398
f 396 398 104
f 384 398 396
f 27 405 345
f 405 106 407
f 345 407 92
f 405 407 345
f 106 406 409
f 406 28 386
f 409 386 102
f 406 386 409
f 92 388 344
f 388 102 385
f 344 385 8
f 388 385 344
f 106 409 407
f 409 102 388
f 407 388 92
f 409 388 407
f 23 394 350
f 394 104 397
f 350 397 94
f 394 397 350
f 104 395 410
f 395 28 406
f 410 406 106
f 395 406 410
f 94 408 351
f 408 106 405
f 351 405 27
f 408 405 351
f 104 410 397
f 410 106 408
f 397 408 94
f 410 408 397
f 95 354 370
f 354 8 367
f 370 367 98
f 354 367 370
f 3 152 495
f 152 40 497
f 495 497 128
f 152 497 495
f 40 153 503
f 153 13 501
f 503 501 130
f 153 501 503
f 128 504 496
f 504 130 502
f 496 502 34
f 504 502 496
f 40 503 497
f 503 130 504
f 497 504 128
f 503 504 497
f 13 155 512
f 155 41 514
f 512 514 133
f 155 514 512
f 34 516 500
f 516 134 518
f 500 518 129
f 516 518 500
f 134 517 520
f 520 510 132
f 129 511 499
f 511 132 509
f 499 509 10
f 511 509 499
f 134 520 518
f 520 132 511
f 518 511 129
f 520 511 518
f 13 512 501
f 512 133 515
f 501 515 130
f 512 515 501
f 133 513 521
f 521 517 134
f 130 519 502
f 519 134 516
f 502 516 34
f 519 516 502
f 133 521 515
f 521 134 519
f 515 519 130
f 521 519 515
f 5 203 429
f 203 55 431
f 429 431 113
f 203 431 429
f 55 204 438
f 204 17 436
f 438 436 115
f 204 436 438
f 113 440 430
f 440 115 437
f 430 437 31
f 440 437 430
f 55 438 431
f 438 115 440
f 431 440 113
f 438 440 431
f 17 201 425
f 201 54 427
f 425 427 112
f 201 427 425
f 54 200 422
f 200 3 420
f 422 420 110
f 200 420 422
f 112 428 426
f 428 110 421
f 426 421 30
f 428 421 426
f 54 422 427
f 422 110 428
f 427 428 112
f 422 428 427
f 31 446 434
f 446 117 449
f 434 449 114
f 446 449 434
f 117 445 447
f 445 30 424
f 447 424 111
f 445 424 447
f 114 435 433
f 435 111 423
f 433 423 9
f 435 423 433
f 117 447 449
f 447 111 435
f 449 435 114
f 447 435 449
f 17 425 436
f 425 112 439
f 436 439 115
f 425 439 436
f 112 426 448
f 426 30 445
f 448 445 117
f 426 445 448
f 115 450 437
f 450 117 446
f 437 446 31
f 450 446 437
f 112 448 439
f 448 117 450
f 439 450 115
f 448 450 439
f 7 278 300
f 278 77 303
f 300 303 82
f 278 303 300
f 77 279 322
f 279 24 320
f 322 320 86
f 279 320 322
f 82 324 301
f 324 86 321
f 301 321 25
f 324 321 301
f 77 322 303
f 322 86 324
f 303 324 82
f 322 324 303
f 24 275 287
f 275 76 289
f 287 289 79
f 275 289 287
f 76 274 277
f 274 5 252
f 277 252 68
f 274 252 277
f 79 288 286
f 288 68 253
f 286 253 21
f 288 253 286
f 76 277 289
f 277 68 288
f 289 288 79
f 277 288 289
f 25 310 297
f 310 84 313
f 297 313 81
f 310 313 297
f 84 309 311
f 309 21 255
f 311 255 69
f 309 255 311
f 81 299 296
f 299 69 254
f 296 254 6
f 299 254 296
f 84 311 313
f 311 69 299
f 313 299 81
f 311 299 313
f 24 287 320
f 287 79 323
f 320 323 86
f 287 323 320
f 79 286 312
f 286 21 309
f 312 309 84
f 286 309 312
f 86 325 321
f 325 84 310
f 321 310 25
f 325 310 321
f 79 312 323
f 312 84 325
f 323 325 86
f 312 325 323
f 8 385 330
f 385 102 387
f 330 387 88
f 385 387 330
f 102 386 403
f 386 28 400
f 403 400 105
f 386 400 403
f 88 401 331
f 401 105 399
f 331 399 26
f 401 399 331
f 102 403 387
f 403 105 401
f 387 401 88
f 403 401 387
f 28 382 390
f 382 101 393
f 390 393 103
f 382 393 390
f 101 381 383
f 381 7 259
f 383 259 71
f 381 259 383
f 103 391 389
f 391 71 260
f 389 260 22
f 391 260 389
f 101 383 393
f 383 71 391
f 393 391 103
f 383 391 393
f 26 337 327
f 337 90 339
f 327 339 87
f 337 339 327
f 90 336 338
f 336 22 257
f 338 257 70
f 336 257 338
f 87 329 326
f 329 70 256
f 326 256 2
f 329 256 326
f 90 338 339
f 338 70 329
f 339 329 87
f 338 329 339
f 28 390 400
f 390 103 404
f 400 404 105
f 390 404 400
f 103 389 392
f 389 22 336
f 392 336 90
f 389 336 392
f 105 402 399
f 402 90 337
f 399 337 26
f 402 337 399
f 103 392 404
f 392 90 402
f 404 402 105
f 392 402 404
f 567 569 566
f 570 567 566
f 566 569 568
f 568 570 566
f 567 573 569
f 571 567 570
f 571 573 567
f 569 573 568
f 572 570 568
f 568 573 572
f 572 571 570
f 573 571 572

